<svg xmlns="http://www.w3.org/2000/svg" viewBox="0 0 64 64">
  <rect width="64" height="64" rx="12" fill="#0f172a"/>
  <!-- Leaf shape -->
  <path d="M32 10 C18 10 10 22 10 34 C10 46 20 54 32 54 C44 54 54 46 54 34 C54 22 46 10 32 10 Z" fill="#22d3ee" opacity="0.15"/>
  <!-- Leaf vein -->
  <path d="M32 52 C32 52 22 40 22 30 C22 20 28 14 32 12" stroke="#22d3ee" stroke-width="2" fill="none" stroke-linecap="round"/>
  <path d="M32 52 C32 52 42 40 42 30 C42 20 36 14 32 12" stroke="#06d6a0" stroke-width="2" fill="none" stroke-linecap="round"/>
  <!-- CO2 text hint - small dot indicators -->
  <circle cx="32" cy="12" r="3" fill="#22d3ee"/>
  <circle cx="22" cy="30" r="2" fill="#22d3ee" opacity="0.6"/>
  <circle cx="42" cy="30" r="2" fill="#06d6a0" opacity="0.6"/>
  <circle cx="32" cy="52" r="2.5" fill="#06d6a0"/>
</svg>
